<svg width="1200" height="900" viewBox="0 0 1200 900" fill="none" xmlns="http://www.w3.org/2000/svg">
  <rect width="1200" height="900" fill="#FAF9F7"/>
  <rect x="74" y="74" width="1052" height="752" stroke="#111111" stroke-width="2"/>
  <rect x="114" y="132" width="286" height="540" fill="white" stroke="#111111" stroke-width="2"/>
  <rect x="114" y="690" width="286" height="90" fill="#111111"/>
  <rect x="438" y="132" width="648" height="178" fill="white" stroke="#111111" stroke-width="2"/>
  <rect x="438" y="342" width="648" height="178" fill="white" stroke="#111111" stroke-width="2"/>
  <rect x="438" y="552" width="648" height="228" fill="white" stroke="#111111" stroke-width="2"/>
  <rect x="438" y="132" width="14" height="648" fill="#D72013"/>
  <line x1="476" y1="210" x2="1044" y2="210" stroke="#111111" stroke-width="2"/>
  <line x1="476" y1="248" x2="924" y2="248" stroke="#111111" stroke-width="2"/>
  <line x1="476" y1="420" x2="1044" y2="420" stroke="#111111" stroke-width="2"/>
  <line x1="476" y1="458" x2="924" y2="458" stroke="#111111" stroke-width="2"/>
  <line x1="476" y1="630" x2="1044" y2="630" stroke="#111111" stroke-width="2"/>
  <line x1="476" y1="668" x2="944" y2="668" stroke="#111111" stroke-width="2"/>
  <line x1="476" y1="706" x2="884" y2="706" stroke="#111111" stroke-width="2"/>
  <circle cx="257" cy="250" r="66" stroke="#111111" stroke-width="2"/>
  <circle cx="257" cy="250" r="12" fill="#D72013"/>
  <line x1="257" y1="316" x2="257" y2="420" stroke="#111111" stroke-width="2"/>
  <line x1="204" y1="420" x2="310" y2="420" stroke="#111111" stroke-width="2"/>
  <line x1="176" y1="478" x2="338" y2="478" stroke="#111111" stroke-width="2"/>
  <line x1="176" y1="516" x2="338" y2="516" stroke="#111111" stroke-width="2"/>
  <text x="114" y="114" fill="#D72013" font-family="Arial, sans-serif" font-size="22" font-weight="700" letter-spacing="4">DIM COVER</text>
  <text x="144" y="734" fill="white" font-family="Arial, sans-serif" font-size="28" font-weight="700" letter-spacing="2">AI DEVICE RACE</text>
  <text x="144" y="766" fill="white" font-family="Arial, sans-serif" font-size="18" letter-spacing="1.5">COMPUTE, INTERFACE, AND WORKFLOW</text>
</svg>
